<?xml version="1.0" encoding="utf-8" standalone="no"?>
<!DOCTYPE svg PUBLIC "-//W3C//DTD SVG 1.1//EN"
  "http://www.w3.org/Graphics/SVG/1.1/DTD/svg11.dtd">
<svg xmlns:xlink="http://www.w3.org/1999/xlink" width="1728pt" height="979.2pt" viewBox="0 0 1728 979.2" xmlns="http://www.w3.org/2000/svg" version="1.1">
 <metadata>
  <rdf:RDF xmlns:dc="http://purl.org/dc/elements/1.1/" xmlns:cc="http://creativecommons.org/ns#" xmlns:rdf="http://www.w3.org/1999/02/22-rdf-syntax-ns#">
   <cc:Work>
    <dc:type rdf:resource="http://purl.org/dc/dcmitype/StillImage"/>
    <dc:date>2022-10-04T15:41:15.906480</dc:date>
    <dc:format>image/svg+xml</dc:format>
    <dc:creator>
     <cc:Agent>
      <dc:title>Matplotlib v3.5.1, https://matplotlib.org/</dc:title>
     </cc:Agent>
    </dc:creator>
   </cc:Work>
  </rdf:RDF>
 </metadata>
 <defs>
  <style type="text/css">*{stroke-linejoin: round; stroke-linecap: butt}</style>
 </defs>
 <g id="figure_1">
  <g id="patch_1">
   <path d="M 0 979.2 
L 1728 979.2 
L 1728 0 
L 0 0 
z
"/>
  </g>
  <g id="axes_1">
   <g id="patch_2">
    <path d="M 216 856.8 
L 1555.2 856.8 
L 1555.2 117.504 
L 216 117.504 
z
"/>
   </g>
   <g id="matplotlib.axis_1">
    <g id="xtick_1">
     <g id="line2d_1">
      <defs>
       <path id="m9253db93da" d="M 0 0 
L 0 3.5 
" style="stroke: #ffffff; stroke-width: 0.8"/>
      </defs>
      <g>
       <use xlink:href="#m9253db93da" x="248.306209" y="856.8" style="fill: #ffffff; stroke: #ffffff; stroke-width: 0.8"/>
      </g>
     </g>
     <g id="text_1">
      <!-- 1980 -->
      <g style="fill: #ffffff" transform="translate(235.581209 871.398438)scale(0.1 -0.1)">
       <defs>
        <path id="DejaVuSans-31" d="M 794 531 
L 1825 531 
L 1825 4091 
L 703 3866 
L 703 4441 
L 1819 4666 
L 2450 4666 
L 2450 531 
L 3481 531 
L 3481 0 
L 794 0 
L 794 531 
z
" transform="scale(0.015625)"/>
        <path id="DejaVuSans-39" d="M 703 97 
L 703 672 
Q 941 559 1184 500 
Q 1428 441 1663 441 
Q 2288 441 2617 861 
Q 2947 1281 2994 2138 
Q 2813 1869 2534 1725 
Q 2256 1581 1919 1581 
Q 1219 1581 811 2004 
Q 403 2428 403 3163 
Q 403 3881 828 4315 
Q 1253 4750 1959 4750 
Q 2769 4750 3195 4129 
Q 3622 3509 3622 2328 
Q 3622 1225 3098 567 
Q 2575 -91 1691 -91 
Q 1453 -91 1209 -44 
Q 966 3 703 97 
z
M 1959 2075 
Q 2384 2075 2632 2365 
Q 2881 2656 2881 3163 
Q 2881 3666 2632 3958 
Q 2384 4250 1959 4250 
Q 1534 4250 1286 3958 
Q 1038 3666 1038 3163 
Q 1038 2656 1286 2365 
Q 1534 2075 1959 2075 
z
" transform="scale(0.015625)"/>
        <path id="DejaVuSans-38" d="M 2034 2216 
Q 1584 2216 1326 1975 
Q 1069 1734 1069 1313 
Q 1069 891 1326 650 
Q 1584 409 2034 409 
Q 2484 409 2743 651 
Q 3003 894 3003 1313 
Q 3003 1734 2745 1975 
Q 2488 2216 2034 2216 
z
M 1403 2484 
Q 997 2584 770 2862 
Q 544 3141 544 3541 
Q 544 4100 942 4425 
Q 1341 4750 2034 4750 
Q 2731 4750 3128 4425 
Q 3525 4100 3525 3541 
Q 3525 3141 3298 2862 
Q 3072 2584 2669 2484 
Q 3125 2378 3379 2068 
Q 3634 1759 3634 1313 
Q 3634 634 3220 271 
Q 2806 -91 2034 -91 
Q 1263 -91 848 271 
Q 434 634 434 1313 
Q 434 1759 690 2068 
Q 947 2378 1403 2484 
z
M 1172 3481 
Q 1172 3119 1398 2916 
Q 1625 2713 2034 2713 
Q 2441 2713 2670 2916 
Q 2900 3119 2900 3481 
Q 2900 3844 2670 4047 
Q 2441 4250 2034 4250 
Q 1625 4250 1398 4047 
Q 1172 3844 1172 3481 
z
" transform="scale(0.015625)"/>
        <path id="DejaVuSans-30" d="M 2034 4250 
Q 1547 4250 1301 3770 
Q 1056 3291 1056 2328 
Q 1056 1369 1301 889 
Q 1547 409 2034 409 
Q 2525 409 2770 889 
Q 3016 1369 3016 2328 
Q 3016 3291 2770 3770 
Q 2525 4250 2034 4250 
z
M 2034 4750 
Q 2819 4750 3233 4129 
Q 3647 3509 3647 2328 
Q 3647 1150 3233 529 
Q 2819 -91 2034 -91 
Q 1250 -91 836 529 
Q 422 1150 422 2328 
Q 422 3509 836 4129 
Q 1250 4750 2034 4750 
z
" transform="scale(0.015625)"/>
       </defs>
       <use xlink:href="#DejaVuSans-31"/>
       <use xlink:href="#DejaVuSans-39" x="63.623047"/>
       <use xlink:href="#DejaVuSans-38" x="127.246094"/>
       <use xlink:href="#DejaVuSans-30" x="190.869141"/>
      </g>
     </g>
    </g>
    <g id="xtick_2">
     <g id="line2d_2">
      <g>
       <use xlink:href="#m9253db93da" x="396.998599" y="856.8" style="fill: #ffffff; stroke: #ffffff; stroke-width: 0.8"/>
      </g>
     </g>
     <g id="text_2">
      <!-- 1985 -->
      <g style="fill: #ffffff" transform="translate(384.273599 871.398438)scale(0.1 -0.1)">
       <defs>
        <path id="DejaVuSans-35" d="M 691 4666 
L 3169 4666 
L 3169 4134 
L 1269 4134 
L 1269 2991 
Q 1406 3038 1543 3061 
Q 1681 3084 1819 3084 
Q 2600 3084 3056 2656 
Q 3513 2228 3513 1497 
Q 3513 744 3044 326 
Q 2575 -91 1722 -91 
Q 1428 -91 1123 -41 
Q 819 9 494 109 
L 494 744 
Q 775 591 1075 516 
Q 1375 441 1709 441 
Q 2250 441 2565 725 
Q 2881 1009 2881 1497 
Q 2881 1984 2565 2268 
Q 2250 2553 1709 2553 
Q 1456 2553 1204 2497 
Q 953 2441 691 2322 
L 691 4666 
z
" transform="scale(0.015625)"/>
       </defs>
       <use xlink:href="#DejaVuSans-31"/>
       <use xlink:href="#DejaVuSans-39" x="63.623047"/>
       <use xlink:href="#DejaVuSans-38" x="127.246094"/>
       <use xlink:href="#DejaVuSans-35" x="190.869141"/>
      </g>
     </g>
    </g>
    <g id="xtick_3">
     <g id="line2d_3">
      <g>
       <use xlink:href="#m9253db93da" x="545.609602" y="856.8" style="fill: #ffffff; stroke: #ffffff; stroke-width: 0.8"/>
      </g>
     </g>
     <g id="text_3">
      <!-- 1990 -->
      <g style="fill: #ffffff" transform="translate(532.884602 871.398438)scale(0.1 -0.1)">
       <use xlink:href="#DejaVuSans-31"/>
       <use xlink:href="#DejaVuSans-39" x="63.623047"/>
       <use xlink:href="#DejaVuSans-39" x="127.246094"/>
       <use xlink:href="#DejaVuSans-30" x="190.869141"/>
      </g>
     </g>
    </g>
    <g id="xtick_4">
     <g id="line2d_4">
      <g>
       <use xlink:href="#m9253db93da" x="694.220605" y="856.8" style="fill: #ffffff; stroke: #ffffff; stroke-width: 0.8"/>
      </g>
     </g>
     <g id="text_4">
      <!-- 1995 -->
      <g style="fill: #ffffff" transform="translate(681.495605 871.398438)scale(0.1 -0.1)">
       <use xlink:href="#DejaVuSans-31"/>
       <use xlink:href="#DejaVuSans-39" x="63.623047"/>
       <use xlink:href="#DejaVuSans-39" x="127.246094"/>
       <use xlink:href="#DejaVuSans-35" x="190.869141"/>
      </g>
     </g>
    </g>
    <g id="xtick_5">
     <g id="line2d_5">
      <g>
       <use xlink:href="#m9253db93da" x="842.831609" y="856.8" style="fill: #ffffff; stroke: #ffffff; stroke-width: 0.8"/>
      </g>
     </g>
     <g id="text_5">
      <!-- 2000 -->
      <g style="fill: #ffffff" transform="translate(830.106609 871.398438)scale(0.1 -0.1)">
       <defs>
        <path id="DejaVuSans-32" d="M 1228 531 
L 3431 531 
L 3431 0 
L 469 0 
L 469 531 
Q 828 903 1448 1529 
Q 2069 2156 2228 2338 
Q 2531 2678 2651 2914 
Q 2772 3150 2772 3378 
Q 2772 3750 2511 3984 
Q 2250 4219 1831 4219 
Q 1534 4219 1204 4116 
Q 875 4013 500 3803 
L 500 4441 
Q 881 4594 1212 4672 
Q 1544 4750 1819 4750 
Q 2544 4750 2975 4387 
Q 3406 4025 3406 3419 
Q 3406 3131 3298 2873 
Q 3191 2616 2906 2266 
Q 2828 2175 2409 1742 
Q 1991 1309 1228 531 
z
" transform="scale(0.015625)"/>
       </defs>
       <use xlink:href="#DejaVuSans-32"/>
       <use xlink:href="#DejaVuSans-30" x="63.623047"/>
       <use xlink:href="#DejaVuSans-30" x="127.246094"/>
       <use xlink:href="#DejaVuSans-30" x="190.869141"/>
      </g>
     </g>
    </g>
    <g id="xtick_6">
     <g id="line2d_6">
      <g>
       <use xlink:href="#m9253db93da" x="991.523998" y="856.8" style="fill: #ffffff; stroke: #ffffff; stroke-width: 0.8"/>
      </g>
     </g>
     <g id="text_6">
      <!-- 2005 -->
      <g style="fill: #ffffff" transform="translate(978.798998 871.398438)scale(0.1 -0.1)">
       <use xlink:href="#DejaVuSans-32"/>
       <use xlink:href="#DejaVuSans-30" x="63.623047"/>
       <use xlink:href="#DejaVuSans-30" x="127.246094"/>
       <use xlink:href="#DejaVuSans-35" x="190.869141"/>
      </g>
     </g>
    </g>
    <g id="xtick_7">
     <g id="line2d_7">
      <g>
       <use xlink:href="#m9253db93da" x="1140.135002" y="856.8" style="fill: #ffffff; stroke: #ffffff; stroke-width: 0.8"/>
      </g>
     </g>
     <g id="text_7">
      <!-- 2010 -->
      <g style="fill: #ffffff" transform="translate(1127.410002 871.398438)scale(0.1 -0.1)">
       <use xlink:href="#DejaVuSans-32"/>
       <use xlink:href="#DejaVuSans-30" x="63.623047"/>
       <use xlink:href="#DejaVuSans-31" x="127.246094"/>
       <use xlink:href="#DejaVuSans-30" x="190.869141"/>
      </g>
     </g>
    </g>
    <g id="xtick_8">
     <g id="line2d_8">
      <g>
       <use xlink:href="#m9253db93da" x="1288.746005" y="856.8" style="fill: #ffffff; stroke: #ffffff; stroke-width: 0.8"/>
      </g>
     </g>
     <g id="text_8">
      <!-- 2015 -->
      <g style="fill: #ffffff" transform="translate(1276.021005 871.398438)scale(0.1 -0.1)">
       <use xlink:href="#DejaVuSans-32"/>
       <use xlink:href="#DejaVuSans-30" x="63.623047"/>
       <use xlink:href="#DejaVuSans-31" x="127.246094"/>
       <use xlink:href="#DejaVuSans-35" x="190.869141"/>
      </g>
     </g>
    </g>
    <g id="xtick_9">
     <g id="line2d_9">
      <g>
       <use xlink:href="#m9253db93da" x="1437.357009" y="856.8" style="fill: #ffffff; stroke: #ffffff; stroke-width: 0.8"/>
      </g>
     </g>
     <g id="text_9">
      <!-- 2020 -->
      <g style="fill: #ffffff" transform="translate(1424.632009 871.398438)scale(0.1 -0.1)">
       <use xlink:href="#DejaVuSans-32"/>
       <use xlink:href="#DejaVuSans-30" x="63.623047"/>
       <use xlink:href="#DejaVuSans-32" x="127.246094"/>
       <use xlink:href="#DejaVuSans-30" x="190.869141"/>
      </g>
     </g>
    </g>
   </g>
   <g id="line2d_10">
    <path d="M 614.706394 856.8 
L 614.706394 117.504 
" clip-path="url(#p18c28e1c8e)" style="fill: none; stroke: #ffffff; stroke-width: 1.5; stroke-linecap: square"/>
   </g>
   <g id="line2d_11">
    <path d="M 725.14732 856.8 
L 725.14732 117.504 
" clip-path="url(#p18c28e1c8e)" style="fill: none; stroke: #ffffff; stroke-width: 1.5; stroke-linecap: square"/>
   </g>
   <g id="line2d_12">
    <path d="M 1013.579629 856.8 
L 1013.579629 117.504 
" clip-path="url(#p18c28e1c8e)" style="fill: none; stroke: #ffffff; stroke-width: 1.5; stroke-linecap: square"/>
   </g>
   <g id="line2d_13">
    <path d="M 688.198035 856.8 
L 688.198035 117.504 
" clip-path="url(#p18c28e1c8e)" style="fill: none; stroke: #ffffff; stroke-width: 1.5; stroke-linecap: square"/>
   </g>
   <g id="line2d_14">
    <path d="M 1170.898944 856.8 
L 1170.898944 117.504 
" clip-path="url(#p18c28e1c8e)" style="fill: none; stroke: #ffffff; stroke-width: 1.5; stroke-linecap: square"/>
   </g>
   <g id="line2d_15">
    <path d="M 1494.327273 856.8 
L 1494.327273 117.504 
" clip-path="url(#p18c28e1c8e)" style="fill: none; stroke: #ffffff; stroke-width: 1.5; stroke-linecap: square"/>
   </g>
   <g id="line2d_16">
    <path d="M 837.948443 856.8 
L 837.948443 117.504 
" clip-path="url(#p18c28e1c8e)" style="fill: none; stroke: #ffffff; stroke-width: 1.5; stroke-linecap: square"/>
   </g>
   <g id="line2d_17">
    <path d="M 960.515897 856.8 
L 960.515897 117.504 
" clip-path="url(#p18c28e1c8e)" style="fill: none; stroke: #ffffff; stroke-width: 1.5; stroke-linecap: square"/>
   </g>
   <g id="line2d_18">
    <path d="M 1025.950315 856.8 
L 1025.950315 117.504 
" clip-path="url(#p18c28e1c8e)" style="fill: none; stroke: #ffffff; stroke-width: 1.5; stroke-linecap: square"/>
   </g>
   <g id="line2d_19">
    <path d="M 1266.039286 856.8 
L 1266.039286 117.504 
" clip-path="url(#p18c28e1c8e)" style="fill: none; stroke: #ffffff; stroke-width: 1.5; stroke-linecap: square"/>
   </g>
   <g id="line2d_20">
    <path d="M 771.944323 856.8 
L 771.944323 117.504 
" clip-path="url(#p18c28e1c8e)" style="fill: none; stroke: #ffffff; stroke-width: 1.5; stroke-linecap: square"/>
   </g>
   <g id="line2d_21">
    <path d="M 1266.039286 856.8 
L 1266.039286 117.504 
" clip-path="url(#p18c28e1c8e)" style="fill: none; stroke: #ffffff; stroke-width: 1.5; stroke-linecap: square"/>
   </g>
   <g id="line2d_22">
    <path d="M 525.751396 856.8 
L 525.751396 117.504 
" clip-path="url(#p18c28e1c8e)" style="fill: none; stroke: #ffffff; stroke-width: 1.5; stroke-linecap: square"/>
   </g>
   <g id="line2d_23">
    <path d="M 276.872727 856.8 
L 276.872727 117.504 
" clip-path="url(#p18c28e1c8e)" style="fill: none; stroke: #ffffff; stroke-width: 1.5; stroke-linecap: square"/>
   </g>
   <g id="line2d_24">
    <path d="M 750.214236 856.8 
L 750.214236 117.504 
" clip-path="url(#p18c28e1c8e)" style="fill: none; stroke: #ffffff; stroke-width: 1.5; stroke-linecap: square"/>
   </g>
   <g id="line2d_25">
    <path d="M 850.074971 856.8 
L 850.074971 117.504 
" clip-path="url(#p18c28e1c8e)" style="fill: none; stroke: #ffffff; stroke-width: 1.5; stroke-linecap: square"/>
   </g>
   <g id="line2d_26">
    <path d="M 1111.080167 856.8 
L 1111.080167 117.504 
" clip-path="url(#p18c28e1c8e)" style="fill: none; stroke: #ffffff; stroke-width: 1.5; stroke-linecap: square"/>
   </g>
   <g id="line2d_27">
    <path d="M 1211.347832 856.8 
L 1211.347832 117.504 
" clip-path="url(#p18c28e1c8e)" style="fill: none; stroke: #ffffff; stroke-width: 1.5; stroke-linecap: square"/>
   </g>
   <g id="line2d_28">
    <path d="M 1120.114023 856.8 
L 1120.114023 117.504 
" clip-path="url(#p18c28e1c8e)" style="fill: none; stroke: #ffffff; stroke-width: 1.5; stroke-linecap: square"/>
   </g>
   <g id="line2d_29">
    <path d="M 1100.825519 856.8 
L 1100.825519 117.504 
" clip-path="url(#p18c28e1c8e)" style="fill: none; stroke: #ffffff; stroke-width: 1.5; stroke-linecap: square"/>
   </g>
   <g id="line2d_30">
    <path d="M 963.445797 856.8 
L 963.445797 117.504 
" clip-path="url(#p18c28e1c8e)" style="fill: none; stroke: #ffffff; stroke-width: 1.5; stroke-linecap: square"/>
   </g>
   <g id="line2d_31">
    <path d="M 1183.106858 856.8 
L 1183.106858 117.504 
" clip-path="url(#p18c28e1c8e)" style="fill: none; stroke: #ffffff; stroke-width: 1.5; stroke-linecap: square"/>
   </g>
   <g id="line2d_32">
    <path d="M 1133.29857 856.8 
L 1133.29857 117.504 
" clip-path="url(#p18c28e1c8e)" style="fill: none; stroke: #ffffff; stroke-width: 1.5; stroke-linecap: square"/>
   </g>
   <g id="line2d_33">
    <path d="M 852.191009 856.8 
L 852.191009 117.504 
" clip-path="url(#p18c28e1c8e)" style="fill: none; stroke: #ffffff; stroke-width: 1.5; stroke-linecap: square"/>
   </g>
   <g id="line2d_34">
    <path d="M 1283.455909 856.8 
L 1283.455909 117.504 
" clip-path="url(#p18c28e1c8e)" style="fill: none; stroke: #ffffff; stroke-width: 1.5; stroke-linecap: square"/>
   </g>
   <g id="line2d_35">
    <path d="M 1176.026268 856.8 
L 1176.026268 117.504 
" clip-path="url(#p18c28e1c8e)" style="fill: none; stroke: #ffffff; stroke-width: 1.5; stroke-linecap: square"/>
   </g>
   <g id="line2d_36">
    <path d="M 1273.770964 856.8 
L 1273.770964 117.504 
" clip-path="url(#p18c28e1c8e)" style="fill: none; stroke: #ffffff; stroke-width: 1.5; stroke-linecap: square"/>
   </g>
   <g id="line2d_37">
    <path d="M 1293.303626 856.8 
L 1293.303626 117.504 
" clip-path="url(#p18c28e1c8e)" style="fill: none; stroke: #ffffff; stroke-width: 1.5; stroke-linecap: square"/>
   </g>
   <g id="line2d_38">
    <path d="M 1260.260873 856.8 
L 1260.260873 117.504 
" clip-path="url(#p18c28e1c8e)" style="fill: none; stroke: #ffffff; stroke-width: 1.5; stroke-linecap: square"/>
   </g>
   <g id="line2d_39">
    <path d="M 947.331351 856.8 
L 947.331351 117.504 
" clip-path="url(#p18c28e1c8e)" style="fill: none; stroke: #ffffff; stroke-width: 1.5; stroke-linecap: square"/>
   </g>
   <g id="line2d_40">
    <path d="M 1398.128912 856.8 
L 1398.128912 117.504 
" clip-path="url(#p18c28e1c8e)" style="fill: none; stroke: #ffffff; stroke-width: 1.5; stroke-linecap: square"/>
   </g>
   <g id="line2d_41">
    <path d="M 1366.795267 856.8 
L 1366.795267 117.504 
" clip-path="url(#p18c28e1c8e)" style="fill: none; stroke: #ffffff; stroke-width: 1.5; stroke-linecap: square"/>
   </g>
   <g id="line2d_42">
    <path d="M 1432.880774 856.8 
L 1432.880774 117.504 
" clip-path="url(#p18c28e1c8e)" style="fill: none; stroke: #ffffff; stroke-width: 1.5; stroke-linecap: square"/>
   </g>
   <g id="line2d_43">
    <path d="M 1402.523761 856.8 
L 1402.523761 117.504 
" clip-path="url(#p18c28e1c8e)" style="fill: none; stroke: #ffffff; stroke-width: 1.5; stroke-linecap: square"/>
   </g>
   <g id="line2d_44">
    <path d="M 1416.684941 856.8 
L 1416.684941 117.504 
" clip-path="url(#p18c28e1c8e)" style="fill: none; stroke: #ffffff; stroke-width: 1.5; stroke-linecap: square"/>
   </g>
   <g id="line2d_45">
    <path d="M 1333.589742 856.8 
L 1333.589742 117.504 
" clip-path="url(#p18c28e1c8e)" style="fill: none; stroke: #ffffff; stroke-width: 1.5; stroke-linecap: square"/>
   </g>
   <g id="line2d_46">
    <path d="M 1340.91449 856.8 
L 1340.91449 117.504 
" clip-path="url(#p18c28e1c8e)" style="fill: none; stroke: #ffffff; stroke-width: 1.5; stroke-linecap: square"/>
   </g>
   <g id="line2d_47">
    <path d="M 1309.2553 856.8 
L 1309.2553 117.504 
" clip-path="url(#p18c28e1c8e)" style="fill: none; stroke: #ffffff; stroke-width: 1.5; stroke-linecap: square"/>
   </g>
   <g id="line2d_48">
    <path d="M 1263.109386 856.8 
L 1263.109386 117.504 
" clip-path="url(#p18c28e1c8e)" style="fill: none; stroke: #ffffff; stroke-width: 1.5; stroke-linecap: square"/>
   </g>
   <g id="line2d_49">
    <path d="M 814.672021 856.8 
L 814.672021 117.504 
" clip-path="url(#p18c28e1c8e)" style="fill: none; stroke: #ffffff; stroke-width: 1.5; stroke-linecap: square"/>
   </g>
   <g id="line2d_50">
    <path d="M 1209.964268 856.8 
L 1209.964268 117.504 
" clip-path="url(#p18c28e1c8e)" style="fill: none; stroke: #ffffff; stroke-width: 1.5; stroke-linecap: square"/>
   </g>
   <g id="line2d_51">
    <path d="M 774.30452 856.8 
L 774.30452 117.504 
" clip-path="url(#p18c28e1c8e)" style="fill: none; stroke: #ffffff; stroke-width: 1.5; stroke-linecap: square"/>
   </g>
   <g id="line2d_52">
    <path d="M 930.89136 856.8 
L 930.89136 117.504 
" clip-path="url(#p18c28e1c8e)" style="fill: none; stroke: #ffffff; stroke-width: 1.5; stroke-linecap: square"/>
   </g>
   <g id="line2d_53">
    <path d="M 823.705877 856.8 
L 823.705877 117.504 
" clip-path="url(#p18c28e1c8e)" style="fill: none; stroke: #ffffff; stroke-width: 1.5; stroke-linecap: square"/>
   </g>
   <g id="line2d_54">
    <path d="M 1184.815966 856.8 
L 1184.815966 117.504 
" clip-path="url(#p18c28e1c8e)" style="fill: none; stroke: #ffffff; stroke-width: 1.5; stroke-linecap: square"/>
   </g>
   <g id="line2d_55">
    <path d="M 1235.763659 856.8 
L 1235.763659 117.504 
" clip-path="url(#p18c28e1c8e)" style="fill: none; stroke: #ffffff; stroke-width: 1.5; stroke-linecap: square"/>
   </g>
   <g id="line2d_56">
    <path d="M 820.369048 856.8 
L 820.369048 117.504 
" clip-path="url(#p18c28e1c8e)" style="fill: none; stroke: #ffffff; stroke-width: 1.5; stroke-linecap: square"/>
   </g>
   <g id="line2d_57">
    <path d="M 1495.62945 856.8 
L 1495.62945 117.504 
" clip-path="url(#p18c28e1c8e)" style="fill: none; stroke: #ffffff; stroke-width: 1.5; stroke-linecap: square"/>
   </g>
   <g id="line2d_58">
    <path d="M 1492.699551 856.8 
L 1492.699551 117.504 
" clip-path="url(#p18c28e1c8e)" style="fill: none; stroke: #ffffff; stroke-width: 1.5; stroke-linecap: square"/>
   </g>
   <g id="line2d_59">
    <path d="M 1454.366702 856.8 
L 1454.366702 117.504 
" clip-path="url(#p18c28e1c8e)" style="fill: none; stroke: #ffffff; stroke-width: 1.5; stroke-linecap: square"/>
   </g>
   <g id="line2d_60">
    <path d="M 1344.983794 856.8 
L 1344.983794 117.504 
" clip-path="url(#p18c28e1c8e)" style="fill: none; stroke: #ffffff; stroke-width: 1.5; stroke-linecap: square"/>
   </g>
   <g id="line2d_61">
    <path d="M 1280.037693 856.8 
L 1280.037693 117.504 
" clip-path="url(#p18c28e1c8e)" style="fill: none; stroke: #ffffff; stroke-width: 1.5; stroke-linecap: square"/>
   </g>
   <g id="line2d_62">
    <path d="M 912.253945 856.8 
L 912.253945 117.504 
" clip-path="url(#p18c28e1c8e)" style="fill: none; stroke: #ffffff; stroke-width: 1.5; stroke-linecap: square"/>
   </g>
   <g id="patch_3">
    <path d="M 216 856.8 
L 216 117.504 
" style="fill: none; stroke: #000000; stroke-width: 0.8; stroke-linejoin: miter; stroke-linecap: square"/>
   </g>
   <g id="patch_4">
    <path d="M 1555.2 856.8 
L 1555.2 117.504 
" style="fill: none; stroke: #000000; stroke-width: 0.8; stroke-linejoin: miter; stroke-linecap: square"/>
   </g>
   <g id="patch_5">
    <path d="M 216 856.8 
L 1555.2 856.8 
" style="fill: none; stroke: #ffffff; stroke-width: 0.8; stroke-linejoin: miter; stroke-linecap: square"/>
   </g>
   <g id="patch_6">
    <path d="M 216 117.504 
L 1555.2 117.504 
" style="fill: none; stroke: #000000; stroke-width: 0.8; stroke-linejoin: miter; stroke-linecap: square"/>
   </g>
  </g>
 </g>
 <defs>
  <clipPath id="p18c28e1c8e">
   <rect x="216" y="117.504" width="1339.2" height="739.296"/>
  </clipPath>
 </defs>
</svg>
